<svg width="40" height="40" viewBox="0 0 40 40" fill="none" xmlns="http://www.w3.org/2000/svg">
<rect x="0.5" y="0.5" width="39" height="39" rx="19.5" stroke="currentColor"/>
<path d="M20.0165 11.925C17.2582 11.925 15.0165 14.1667 15.0165 16.925V19.3334C15.0165 19.8417 14.7998 20.6167 14.5415 21.05L13.5832 22.6417C12.9915 23.625 13.3998 24.7167 14.4832 25.0834C18.0748 26.2834 21.9498 26.2834 25.5415 25.0834C26.5498 24.75 26.9915 23.5584 26.4415 22.6417L25.4832 21.05C25.2332 20.6167 25.0165 19.8417 25.0165 19.3334V16.925C25.0165 14.175 22.7665 11.925 20.0165 11.925Z" stroke="currentColor" stroke-miterlimit="10" stroke-linecap="round"/>
<path d="M21.5579 12.1667C21.2996 12.0917 21.0329 12.0334 20.7579 12C19.9579 11.9 19.1913 11.9584 18.4746 12.1667C18.7163 11.55 19.3163 11.1167 20.0163 11.1167C20.7163 11.1167 21.3163 11.55 21.5579 12.1667Z" stroke="currentColor" stroke-miterlimit="10" stroke-linecap="round" stroke-linejoin="round"/>
<path d="M22.5166 25.3833C22.5166 26.7583 21.3916 27.8833 20.0166 27.8833C19.3333 27.8833 18.6999 27.6 18.2499 27.15C17.7999 26.7 17.5166 26.0666 17.5166 25.3833" stroke="currentColor" stroke-miterlimit="10"/>
</svg>
