<svg width="40" height="40" viewBox="0 0 40 40" fill="none" xmlns="http://www.w3.org/2000/svg">
<rect x="0.5" y="0.5" width="39" height="39" rx="19.5" stroke="currentColor"/>
<path d="M13 13H19C19.55 13 20 12.55 20 12C20 11.45 19.55 11 19 11H13C11.9 11 11 11.9 11 13V27C11 28.1 11.9 29 13 29H19C19.55 29 20 28.55 20 28C20 27.45 19.55 27 19 27H13V13Z" fill="currentColor"/>
<path d="M28.65 19.65L25.86 16.86C25.7905 16.7886 25.7012 16.7395 25.6036 16.7191C25.506 16.6987 25.4045 16.7079 25.3121 16.7455C25.2198 16.783 25.1408 16.8473 25.0851 16.9301C25.0295 17.0129 24.9999 17.1103 25 17.21V19H18C17.45 19 17 19.45 17 20C17 20.55 17.45 21 18 21H25V22.79C25 23.24 25.54 23.46 25.85 23.14L28.64 20.35C28.84 20.16 28.84 19.84 28.65 19.65Z" fill="currentColor"/>
</svg>
