<svg width="18" height="22" viewBox="0 0 18 22" fill="none" xmlns="http://www.w3.org/2000/svg">
<path d="M13.4918 0.00484166C13.3991 -0.0110784 13.3035 0.0128019 13.2311 0.068522L7.53372 4.41734C7.4642 4.47041 7.42365 4.54736 7.42076 4.62961C7.41786 4.71186 7.44972 4.79146 7.51344 4.84984L9.37008 6.55063L6.47651 9.20927C5.92328 8.92271 5.30054 8.77147 4.66042 8.77147C2.6242 8.77147 0.964524 10.2892 0.964524 12.1571V12.2075C0.341783 12.9505 0 13.8685 0 14.8078V20.5549C0 21.2024 0.576398 21.7304 1.28314 21.7304H8.0406C8.74734 21.7304 9.32374 21.2024 9.32374 20.5549V14.8052C9.32374 13.8659 8.97906 12.9452 8.35631 12.2022V12.1545C8.35631 11.5681 8.19411 11.0003 7.88129 10.4935L10.7865 7.8428L12.3419 9.26764C12.4027 9.32336 12.4867 9.35255 12.5678 9.35255C12.6489 9.35255 12.73 9.32336 12.7937 9.26764L17.6192 4.84718C17.6801 4.79146 17.7119 4.71717 17.7119 4.64022C17.709 2.36366 15.9364 0.413456 13.4918 0.00484166ZM8.68651 14.8052V20.5523C8.68651 20.8787 8.39687 21.144 8.0406 21.144H1.28314C0.92687 21.144 0.637223 20.8787 0.637223 20.5523V14.8052C0.637223 14.2931 0.750186 13.7995 0.964524 13.3432V14.8052C0.964524 15.6436 1.30051 16.4131 1.85374 17.0048L1.84215 17.0154L2.07387 17.225C2.58365 17.684 3.21508 17.9892 3.90155 18.1192C3.90734 18.1192 3.91313 18.1218 3.91603 18.1218C3.96527 18.1324 4.0174 18.1404 4.06954 18.1457C4.08113 18.1484 4.08982 18.1484 4.1014 18.151C4.14774 18.1563 4.19409 18.1616 4.24333 18.1669C4.25781 18.1696 4.27229 18.1696 4.28678 18.1722C4.33312 18.1776 4.37946 18.1802 4.42581 18.1829C4.44029 18.1829 4.45767 18.1855 4.47215 18.1855C4.53297 18.1882 4.5967 18.1908 4.65752 18.1908C4.72125 18.1908 4.78207 18.1882 4.8429 18.1855C4.85738 18.1855 4.87476 18.1829 4.88924 18.1829C4.93559 18.1802 4.98193 18.1776 5.02827 18.1722C5.04275 18.1696 5.05724 18.1696 5.07172 18.1669C5.11806 18.1616 5.1673 18.1563 5.21365 18.151C5.22523 18.1484 5.23392 18.1484 5.24551 18.1457C5.29764 18.1378 5.34688 18.1298 5.39902 18.1218C5.40481 18.1218 5.41061 18.1192 5.4135 18.1192C6.09707 17.9892 6.7285 17.684 7.24117 17.225L7.47289 17.0154L7.46131 17.0048C8.01453 16.4131 8.35052 15.6436 8.35052 14.8052V13.3432C8.57065 13.8022 8.68651 14.301 8.68651 14.8052ZM5.13544 17.5699C5.12386 17.5726 5.11517 17.5726 5.10358 17.5752C5.06882 17.5806 5.03117 17.5832 4.99351 17.5885C4.97903 17.5912 4.96455 17.5912 4.95007 17.5938C4.91531 17.5965 4.88055 17.5991 4.84579 17.6018C4.83131 17.6018 4.81683 17.6044 4.80235 17.6044C4.75311 17.6071 4.70676 17.6071 4.65752 17.6071C4.60828 17.6071 4.55904 17.6071 4.5127 17.6044C4.49822 17.6044 4.48374 17.6018 4.46925 17.6018C4.4345 17.5991 4.39974 17.5965 4.36498 17.5938C4.3505 17.5938 4.33601 17.5912 4.32153 17.5885C4.28677 17.5859 4.24912 17.5806 4.21436 17.5752C4.20278 17.5726 4.19119 17.5726 4.1825 17.5699C3.66114 17.4956 3.18322 17.2966 2.78351 17.0127C3.31935 16.6307 3.97396 16.4237 4.66042 16.4237C5.34688 16.4237 6.00149 16.6307 6.53733 17.0127C6.13762 17.2993 5.6597 17.4956 5.13544 17.5699ZM7.71909 12.1545V14.8025C7.71909 15.4871 7.44972 16.1159 7.00077 16.6041C6.34037 16.1079 5.52357 15.8373 4.66332 15.8373C3.80306 15.8373 2.98336 16.1079 2.32587 16.6041C1.87691 16.1159 1.60754 15.4871 1.60754 14.8025V12.1545C1.60754 10.6102 2.98047 9.35255 4.66621 9.35255C5.13544 9.35255 5.59598 9.45072 6.01307 9.63911L5.03406 10.5386C3.48445 10.5757 2.44172 11.3638 2.08835 12.1439C1.89139 12.5817 1.93484 12.9929 2.21001 13.245L3.65824 14.5717C3.79727 14.699 3.97975 14.7654 4.1854 14.7654C4.31864 14.7654 4.46056 14.7388 4.60828 14.6831C5.47143 14.3567 6.39251 13.1362 6.44175 11.8122L7.41496 10.9233C7.61192 11.3054 7.71909 11.7246 7.71909 12.1545ZM5.89432 11.4832C5.83349 11.5389 5.80163 11.6132 5.80163 11.6901V11.7061C5.80163 12.9239 4.95007 13.9216 4.35919 14.1445C4.31284 14.1604 4.16223 14.2135 4.1043 14.1604L2.65606 12.8337C2.57496 12.7594 2.58075 12.571 2.67344 12.3694C2.94571 11.7697 3.83493 11.1223 5.15282 11.1223H5.16441C5.2484 11.1223 5.3295 11.0905 5.39033 11.0374L9.82193 6.96189L10.3346 7.43153L5.89432 11.4832ZM12.5649 8.64942L11.0095 7.22457L10.045 6.34101L8.21149 4.66145L13.5207 0.607149C15.5454 1.0078 17.011 2.62369 17.0689 4.52348L12.5649 8.64942Z" fill="currentColor"/>
</svg>
