<svg width="24" height="24" viewBox="0 0 24 24" fill="none" xmlns="http://www.w3.org/2000/svg">
<path fill-rule="evenodd" clip-rule="evenodd" d="M12 2C17.5229 2 22 6.47716 22 12V18.6667C22 20.5077 20.5077 22 18.6667 22H17.1311C16.3317 22 15.5973 21.5709 15.2031 20.8828C14.1636 21.5928 13.0178 22 12 22C10.9822 22 9.83644 21.5928 8.79691 20.8827C8.40269 21.5709 7.66836 22 6.86886 22H5.33333C3.49239 22 2 20.5077 2 18.6667V12C2 6.47716 6.47716 2 12 2ZM12 4.22222C7.70446 4.22222 4.22222 7.70446 4.22222 12V18.6667C4.22222 19.2803 4.71969 19.7778 5.33333 19.7778H6.86886L7.10107 19.3133C6.06794 18.0318 5.33333 16.311 5.33333 14.2222C5.33333 13.3434 5.4816 12.4729 5.74818 11.6532C5.90101 11.1833 6.34578 10.8708 6.83966 10.8863C8.51139 10.9388 10.1282 10.1314 11.0916 8.76363C11.2997 8.4681 11.6386 8.29227 12 8.29227C12.3614 8.29227 12.7003 8.46811 12.9084 8.76365C13.8717 10.1316 15.4886 10.9388 17.1603 10.8863C17.6542 10.8709 18.099 11.1834 18.2519 11.6533C18.5184 12.4729 18.6667 13.3434 18.6667 14.2222C18.6667 16.311 17.9321 18.0318 16.8989 19.3133L17.1311 19.7778H18.6667C19.2803 19.7778 19.7778 19.2803 19.7778 18.6667V12C19.7778 7.70446 16.2956 4.22222 12 4.22222ZM12 11.1003C10.8538 12.2 9.34423 12.9266 7.66879 13.0804C7.59434 13.459 7.55556 13.8421 7.55556 14.2222C7.55556 16.0203 8.28561 17.4132 9.22938 18.3636C10.2076 19.3486 11.3279 19.7778 12 19.7778C12.6721 19.7778 13.7924 19.3486 14.7707 18.3636C15.7143 17.4132 16.4444 16.0203 16.4444 14.2222C16.4444 13.8421 16.4057 13.459 16.3312 13.0806C14.6558 12.9266 13.1461 12.2001 12 11.1003Z" fill="currentColor"/>
</svg>
