<svg width="80" height="80" viewBox="0 0 80 80" fill="none" xmlns="http://www.w3.org/2000/svg">
<circle cx="40" cy="40" r="39" fill="#D9D9D9" fill-opacity="0.8" stroke="#CA2E55" stroke-width="2"/>
<g clip-path="url(#clip0_19_1576)">
<path d="M39.9998 51.52C31.4462 51.52 27.1646 41.1789 33.2126 35.1328C39.2606 29.0867 49.5998 33.3664 49.5998 41.92C49.5998 44.4661 48.5884 46.9079 46.788 48.7082C44.9877 50.5086 42.5459 51.52 39.9998 51.52ZM33.1262 25.7152L31.8398 26.944C31.1294 27.6294 30.179 28.4954 29.1902 28.4992H24.6398C22.5547 28.48 20.7998 29.847 20.7998 31.8592V51.9808C20.7998 53.9584 22.7198 55.36 24.6398 55.36H55.3598C57.2798 55.36 59.1998 53.9853 59.1998 51.9808V31.8592C59.1998 29.8682 57.2798 28.48 55.3598 28.48H50.8094C49.8206 28.4762 48.8702 27.6102 48.1598 26.9248L46.8734 25.696C46.1585 25.0169 45.2098 24.6388 44.2238 24.64H35.7758C34.7871 24.6439 33.8381 25.0291 33.1262 25.7152Z" fill="#C70686"/>
<path d="M39.9997 47.68C43.1809 47.68 45.7597 45.1012 45.7597 41.92C45.7597 38.7388 43.1809 36.16 39.9997 36.16C36.8186 36.16 34.2397 38.7388 34.2397 41.92C34.2397 45.1012 36.8186 47.68 39.9997 47.68Z" fill="#C70686"/>
</g>
<defs>
<clipPath id="clip0_19_1576">
<rect width="38.4" height="38.4" fill="white" transform="translate(20.7998 20.8)"/>
</clipPath>
</defs>
</svg>
