<svg width="16" height="18" viewBox="0 0 16 18" fill="none" xmlns="http://www.w3.org/2000/svg">
<path d="M13.3311 17.2778C12.2972 18.2277 11.1685 18.0777 10.0819 17.6278C8.93206 17.1678 7.87714 17.1478 6.66399 17.6278C5.14491 18.2477 4.34317 18.0677 3.43595 17.2778C-1.71205 12.2485 -0.952507 4.58942 4.89173 4.30946C6.31587 4.37945 7.30749 5.04936 8.14087 5.10935C9.38567 4.86939 10.5777 4.17947 11.9069 4.26946C13.4998 4.38945 14.7025 4.98937 15.4936 6.06923C12.2023 7.939 12.9829 12.0485 16 13.1983C15.3987 14.6981 14.6181 16.188 13.3205 17.2878L13.3311 17.2778ZM8.03538 4.24946C7.87714 2.01975 9.78654 0.179977 11.9808 0C12.2867 2.57967 9.51226 4.49943 8.03538 4.24946Z" fill="currentColor"/>
</svg>
