<svg width="24" height="24" viewBox="0 0 24 24" fill="none" xmlns="http://www.w3.org/2000/svg">
<path d="M6.85714 3V9.2069M17.1429 3V9.2069M6.21429 12.3103H10.0714M17.7857 12.3103H13.9286M6.21429 16.0345H10.0714M13.9286 16.0345H17.7857M4.28571 6.10345H19.7143C20.0553 6.10345 20.3823 6.23424 20.6234 6.46704C20.8645 6.69984 21 7.01559 21 7.34483V19.7586C21 20.0879 20.8645 20.4036 20.6234 20.6364C20.3823 20.8692 20.0553 21 19.7143 21H4.28571C3.94472 21 3.6177 20.8692 3.37658 20.6364C3.13546 20.4036 3 20.0879 3 19.7586V7.34483C3 7.01559 3.13546 6.69984 3.37658 6.46704C3.6177 6.23424 3.94472 6.10345 4.28571 6.10345Z" stroke="#555555"/>
</svg>
