<svg width="25" height="25" viewBox="0 0 25 25" fill="none" xmlns="http://www.w3.org/2000/svg">
<path d="M24.8333 21.9625L24.55 21.7125C23.7464 20.9961 23.0429 20.1749 22.4583 19.2708C21.8196 18.0232 21.437 16.6603 21.3333 15.2625V11.1458C21.3388 8.95051 20.5425 6.82873 19.0939 5.17914C17.6454 3.52956 15.6443 2.46572 13.4667 2.1875V1.1125C13.4667 0.817447 13.3495 0.534478 13.1408 0.325844C12.9322 0.11721 12.6492 0 12.3542 0C12.0591 0 11.7761 0.11721 11.5675 0.325844C11.3589 0.534478 11.2417 0.817447 11.2417 1.1125V2.20417C9.08355 2.50244 7.10664 3.57271 5.67711 5.21676C4.24757 6.8608 3.46228 8.9672 3.46667 11.1458V15.2625C3.36296 16.6603 2.98044 18.0232 2.34167 19.2708C1.7674 20.1728 1.07516 20.9939 0.283333 21.7125L0 21.9625V24.3125H24.8333V21.9625Z" fill="#C70686"/>
</svg>
