<svg width="33" height="33" viewBox="0 0 33 33" fill="none" xmlns="http://www.w3.org/2000/svg">
<path d="M16.5 26.4C9.14925 26.4 5.46975 17.5131 10.6672 12.3173C15.8647 7.12141 24.75 10.7993 24.75 18.15C24.75 20.338 23.8808 22.4365 22.3336 23.9836C20.7865 25.5308 18.688 26.4 16.5 26.4ZM10.593 4.22401L9.4875 5.28001C8.877 5.86906 8.06025 6.61321 7.2105 6.61651H3.3C1.5081 6.60001 0 7.77481 0 9.50401V26.796C0 28.4955 1.65 29.7 3.3 29.7H29.7C31.35 29.7 33 28.5186 33 26.796V9.50401C33 7.79296 31.35 6.60001 29.7 6.60001H25.7895C24.9398 6.59671 24.123 5.85256 23.5125 5.26351L22.407 4.20751C21.7927 3.62388 20.9774 3.29895 20.13 3.30001H12.87C12.0204 3.30339 11.2047 3.63436 10.593 4.22401Z" fill="#C70686"/>
<path d="M16.5 23.1C19.2339 23.1 21.45 20.8838 21.45 18.15C21.45 15.4162 19.2339 13.2 16.5 13.2C13.7662 13.2 11.55 15.4162 11.55 18.15C11.55 20.8838 13.7662 23.1 16.5 23.1Z" fill="#C70686"/>
</svg>
