<svg width="24" height="24" viewBox="0 0 24 24" fill="none" xmlns="http://www.w3.org/2000/svg">
  <path 
    d="M16.5 3.5C19.3039 3.5 21.5 5.69614 21.5 8.5C21.5 10.2257 20.7287 11.831 19.2695 13.6162C17.8045 15.4086 15.6985 17.3207 13.1133 19.6699L12.001 20.6748L10.8867 19.6602L10.8857 19.6592C8.30081 17.3152 6.19531 15.4052 4.73047 13.6143C3.27153 11.8305 2.5 10.2256 2.5 8.5C2.5 5.69614 4.69614 3.5 7.5 3.5C9.08854 3.5 10.6209 4.24195 11.6191 5.41406L12 5.86133L12.3809 5.41406C13.3791 4.24195 14.9115 3.5 16.5 3.5Z"
    stroke="currentColor"
    stroke-width="1.5"
  />
</svg>