<svg width="18" height="18" viewBox="0 0 18 18" fill="none" xmlns="http://www.w3.org/2000/svg">
<path fill-rule="evenodd" clip-rule="evenodd" d="M18 9.20456C18 8.56637 17.9416 7.95274 17.8331 7.36365H9.18372V10.845H14.1262C13.9133 11.97 13.2663 12.9232 12.2936 13.5614V15.8196H15.2616C16.9982 14.2527 18 11.9455 18 9.20456Z" fill="#4285F4"/>
<path fill-rule="evenodd" clip-rule="evenodd" d="M9.18379 18C11.6634 18 13.7422 17.1941 15.2617 15.8195L12.2937 13.5614C11.4714 14.1014 10.4194 14.4204 9.18379 14.4204C6.79186 14.4204 4.76728 12.8373 4.04511 10.71H0.976929V13.0418C2.48806 15.9832 5.59381 18 9.18379 18Z" fill="#34A853"/>
<path fill-rule="evenodd" clip-rule="evenodd" d="M4.04499 10.71C3.86132 10.17 3.75696 9.59319 3.75696 9.00001C3.75696 8.40683 3.86132 7.83001 4.04499 7.29001V4.95819H0.976809C0.354824 6.17319 0 7.54774 0 9.00001C0 10.4523 0.354824 11.8268 0.976809 13.0418L4.04499 10.71Z" fill="#FBBC05"/>
<path fill-rule="evenodd" clip-rule="evenodd" d="M9.18379 3.57955C10.5321 3.57955 11.7427 4.03364 12.6945 4.92546L15.3285 2.34409C13.7381 0.891818 11.6592 0 9.18379 0C5.59381 0 2.48806 2.01682 0.976929 4.95818L4.04511 7.29C4.76728 5.16273 6.79186 3.57955 9.18379 3.57955Z" fill="#EA4335"/>
</svg>
