<svg width="24" height="24" viewBox="0 0 24 24" fill="none" xmlns="http://www.w3.org/2000/svg">
<path d="M10.043 3.14938C11.0596 2.33302 12.653 2.28689 13.7549 3.00681L13.9688 3.1611L20.5137 8.39645V8.39743C20.8916 8.70553 21.2196 9.18878 21.4307 9.74118C21.6407 10.291 21.7189 10.8673 21.6465 11.3476L20.3877 18.8847C20.1386 20.3182 18.7435 21.5 17.2998 21.5H6.7002C5.327 21.5 4.04309 20.4867 3.68262 19.164L3.62305 18.8955L2.36328 11.3574V11.3564L2.33984 11.1709C2.30172 10.7278 2.38061 10.2244 2.56445 9.74216C2.74829 9.26007 3.02465 8.83063 3.34961 8.52438L3.49219 8.40036L10.043 3.15036V3.14938ZM12 13.75C11.3139 13.75 10.75 14.3138 10.75 15V18C10.75 18.6861 11.3139 19.25 12 19.25C12.6861 19.2499 13.25 18.6861 13.25 18V15C13.25 14.3138 12.6861 13.75 12 13.75Z" stroke="#555555"/>
</svg>
